<?xml version="1.0" encoding="UTF-8"?>
<svg version="1.1" xmlns="http://www.w3.org/2000/svg" width="3257" height="872">
<path d="M0 0 C5.11504551 -0.01815407 10.23007782 -0.03145887 15.34514809 -0.04012489 C17.13049941 -0.04357431 18.91584891 -0.04827922 20.70119286 -0.05446434 C67.40851908 -0.2060142 116.4502125 2.90772478 158.09259033 26.02487183 C159.22180908 26.6513562 160.35102783 27.27784058 161.51446533 27.92330933 C169.81622635 32.78917404 177.02241254 38.54713066 184.09259033 45.02487183 C184.61240479 45.49940796 185.13221924 45.97394409 185.66778564 46.46286011 C211.21608262 70.09703703 225.79213554 105.19818201 227.25372314 139.8444519 C227.29976815 144.17562728 227.33925198 148.50594728 227.34259033 152.83737183 C227.34326508 153.62143402 227.34393982 154.40549622 227.34463501 155.21331787 C227.3284271 167.06372416 226.86012286 178.45353503 224.09259033 190.02487183 C223.92630127 190.75834839 223.76001221 191.49182495 223.58868408 192.24752808 C215.92703883 225.334485 196.54821017 254.70988844 167.85211182 273.1791687 C157.70609937 279.502475 147.09162408 284.39208495 136.09259033 289.02487183 C134.51284424 289.69776245 134.51284424 289.69776245 132.90118408 290.38424683 C129.59303136 291.79262997 126.28147535 293.19253334 122.96759033 294.58737183 C121.91748779 295.02960083 120.86738525 295.47182983 119.78546143 295.92745972 C118.81173584 296.33214478 117.83801025 296.73682983 116.83477783 297.15377808 C115.96707764 297.51544067 115.09937744 297.87710327 114.2053833 298.24972534 C112.09259033 299.02487183 112.09259033 299.02487183 110.09259033 299.02487183 C112.73016353 306.05808747 115.83368774 312.64248845 119.46759033 319.21237183 C119.98796875 320.15870483 120.50834717 321.10503784 121.04449463 322.08004761 C127.06693114 332.92775923 133.54294525 343.48985423 140.09259033 354.02487183 C140.70537842 355.0127771 141.3181665 356.00068237 141.94952393 357.01852417 C154.02592216 376.47232075 166.30899662 395.79440516 178.77911377 414.99801636 C180.09868486 417.03427643 181.4128197 419.07394513 182.72540283 421.11471558 C187.68157816 428.81422843 192.6983435 436.47009479 197.78009033 444.08737183 C198.35799316 444.95523315 198.935896 445.82309448 199.53131104 446.71725464 C202.77189324 451.57614094 206.03771812 456.41628913 209.33087158 461.23971558 C210.04090332 462.28699829 210.75093506 463.33428101 211.48248291 464.41329956 C212.84295767 466.41946072 214.2107551 468.42068495 215.58746338 470.41574097 C222.00149121 479.90529064 228.2946943 490.04813839 228.15509033 501.77487183 C228.14606689 502.75971558 228.13704346 503.74455933 228.12774658 504.75924683 C228.11614502 505.50690308 228.10454346 506.25455933 228.09259033 507.02487183 C222.55174108 509.29979868 217.60214187 510.62785549 211.65509033 511.21237183 C210.97510986 511.29422729 210.29512939 511.37608276 209.59454346 511.4604187 C196.35280543 512.86861068 182.75277059 512.06202027 169.46075439 511.70748901 C167.95466356 511.66880405 166.44846769 511.63402724 164.94219971 511.60299683 C136.54815242 511.01704916 136.54815242 511.01704916 127.71759033 501.83737183 C123.55843173 496.72197809 120.40369612 490.97724865 117.13555908 485.27487183 C113.89572483 479.63885309 110.50613548 474.09712412 107.11560059 468.5508728 C101.1076319 458.72124824 95.20608308 448.83882421 89.41925049 438.87741089 C82.84981364 427.57380844 76.01279165 416.50886718 68.79083252 405.60787964 C65.53241716 400.65186548 62.34778351 395.64837145 59.15509033 390.64987183 C58.14200806 389.0651709 58.14200806 389.0651709 57.10845947 387.44845581 C51.00171251 377.89169347 44.91217141 368.32400722 38.82794189 358.75289917 C36.43536523 354.99169326 34.03846788 351.23324673 31.64190674 347.47457886 C29.31979891 343.82915313 27.004255 340.17957531 24.68829346 336.53024292 C23.20152546 334.19590797 21.70349086 331.86926162 20.20196533 329.54440308 C6.36367736 307.98588688 1.7475623 289.5784982 6.09259033 264.02487183 C6.22536377 263.09545776 6.35813721 262.1660437 6.49493408 261.20846558 C6.90509033 258.77487183 6.90509033 258.77487183 8.09259033 255.02487183 C19.24117979 249.25769493 34.49420139 250.00056327 46.69781494 249.73532104 C68.547122 249.23171502 87.33940555 246.99679546 103.47930908 230.82955933 C125.4655025 207.23301692 132.05165821 172.10237936 131.23321533 140.94528198 C130.05521442 116.4813117 122.30535506 92.58100802 104.40509033 75.33737183 C90.97524692 63.66013317 75.16208717 61.29353172 58.09259033 60.02487183 C56.9467749 59.93512085 55.80095947 59.84536987 54.62042236 59.75289917 C40.24345497 58.73735502 25.83177036 58.87223629 11.42755127 58.89450073 C7.73029493 58.90016594 4.03311116 58.89683974 0.33585739 58.89104843 C-16.7674454 58.8685023 -33.82359766 59.10364752 -50.90740967 60.02487183 C-51.0512207 61.10824829 -51.19503174 62.19162476 -51.34320068 63.30783081 C-51.60417359 65.27382669 -51.86569514 67.23975766 -52.13372803 69.20480347 C-54.16325977 84.99028113 -54.06938177 100.80722432 -54.07537842 116.69284058 C-54.07929171 119.24309823 -54.08339086 121.7933556 -54.08766174 124.34361267 C-54.09691862 131.20299468 -54.09792994 138.0623508 -54.09588623 144.92173767 C-54.09483611 148.51516773 -54.09546486 152.10859532 -54.09652913 155.70202529 C-54.10692956 194.90472667 -53.76706674 234.08019385 -52.90740967 273.27487183 C-52.0754896 311.38529345 -51.68066427 349.48083492 -51.66174841 387.5992415 C-51.65922406 392.33394605 -51.65176862 397.06861825 -51.64227295 401.80331421 C-51.48720099 488.74723259 -51.48720099 488.74723259 -58.90740967 509.02487183 C-120.90827078 517.1085284 -120.90827078 517.1085284 -145.90740967 508.02487183 C-147.92363524 492.05166731 -148.3782246 476.05545333 -148.67132568 459.97750854 C-148.68979144 458.96761714 -148.7082572 457.95772573 -148.72728252 456.91723156 C-148.76697865 454.73869876 -148.80650559 452.56016288 -148.8458786 450.38162422 C-148.90657218 447.07055997 -148.97023849 443.7595632 -149.03430176 440.44856262 C-150.23910019 376.91646689 -150.06158226 313.37248756 -150.03687092 249.83186465 C-150.03238621 238.06514233 -150.0331912 226.29842992 -150.03778076 214.53170776 C-150.04320372 200.62325399 -150.04520159 186.71480599 -150.0421685 172.8063513 C-150.04185017 171.30788843 -150.0415358 169.80942555 -150.04122543 168.31096268 C-150.04099402 167.20703831 -150.04099402 167.20703831 -150.04075793 166.08081245 C-150.03991684 161.04827221 -150.04132138 156.01573589 -150.04370499 150.98319626 C-150.05602953 122.39396974 -149.95974787 93.81195293 -149.44989014 65.22653198 C-149.42967749 64.07269414 -149.40946484 62.91885629 -149.38863969 61.73005366 C-148.49453666 12.01351908 -148.49453666 12.01351908 -145.27069092 5.94284058 C-138.63564457 0.55803436 -132.19638416 0.58188072 -123.96917725 0.59249878 C-122.78062134 0.58230713 -121.59206543 0.57211548 -120.36749268 0.56161499 C-117.11086084 0.53662898 -113.85450021 0.524754 -110.5977881 0.51876092 C-107.13897219 0.50928001 -103.68028035 0.48302801 -100.22154236 0.45875549 C-93.62664168 0.41503453 -87.03176489 0.38656869 -80.43676347 0.36343211 C-73.10714349 0.33693238 -65.777668 0.29268301 -58.44814563 0.2471627 C-42.50506414 0.14894107 -26.56198073 0.08457668 -10.61867523 0.03641891 C-7.07911186 0.02540605 -3.53955686 0.01291996 0 0 Z " fill="#1D2C3A" transform="translate(2586.9074096679688,-0.024871826171875)"/>
<path d="M0 0 C3.54847273 0.0025995 7.09694338 0.00016562 10.64541626 -0.00138617 C16.59529088 -0.00318638 22.54515294 -0.00085891 28.49502563 0.00395441 C35.29446673 0.00939281 42.0938778 0.00762861 48.89331818 0.00212801 C54.81691996 -0.00246533 60.74051291 -0.00302379 66.66411591 -0.00043333 C70.16447946 0.0010958 73.66482909 0.00141923 77.16519165 -0.00196981 C90.69064849 -0.01094385 104.20027849 0.06765971 117.71768188 0.56840754 C119.25041748 0.62413337 119.25041748 0.62413337 120.81411743 0.68098497 C168.80851167 2.68144255 215.94842173 18.23811459 249.31533813 54.0093255 C277.26094892 86.64691153 289.14180427 128.06292977 286.28799438 170.642138 C283.46620109 205.59489798 270.85998012 238.10909773 248.56533813 265.1343255 C247.86924438 266.05342707 247.17315063 266.97252863 246.45596313 267.91948175 C245.52010376 269.01582941 245.52010376 269.01582941 244.56533813 270.1343255 C243.90533813 270.1343255 243.24533813 270.1343255 242.56533813 270.1343255 C242.56533813 270.7943255 242.56533813 271.4543255 242.56533813 272.1343255 C205.62497672 307.76910242 148.50024775 318.2178829 99.13565063 317.43510675 C75.3236934 316.72044393 75.3236934 316.72044393 64.56533813 313.1343255 C58.99724471 297.09631281 58.63310996 277.60029545 65.76065063 262.12260675 C68.90534233 258.65800054 73.36425352 257.39507346 77.91720581 256.85571527 C80.50293534 256.74364036 83.07487387 256.71934832 85.66299438 256.7280755 C86.61492172 256.71723932 87.56684906 256.70640314 88.54762268 256.69523859 C91.57443025 256.66119352 94.60086509 256.64544608 97.62783813 256.6343255 C121.05570326 256.54718377 141.33280276 255.32827892 159.31533813 238.5718255 C160.42908813 237.365263 160.42908813 237.365263 161.56533813 236.1343255 C162.32846313 235.3093255 163.09158813 234.4843255 163.87783813 233.6343255 C184.7613662 207.90634265 192.59121703 172.59806873 190.56533813 140.1343255 C187.9617471 115.40656089 179.29088852 91.43299273 159.91299438 74.9468255 C142.39719789 61.42381456 122.64376493 60.35622726 101.29190063 59.579638 C100.13735382 59.53759241 98.98280701 59.49554682 97.79327393 59.45222712 C84.85490956 59.02192373 71.91727025 58.98178877 58.97305298 59.00395441 C55.58614856 59.00970921 52.1993218 59.00622959 48.81241989 59.00050211 C35.0245631 58.98085838 21.31808516 59.10194213 7.56533813 60.1343255 C6.85043941 71.37431796 6.30958102 82.60375757 6.00695801 93.86236811 C5.97538574 95.0096072 5.97538574 95.0096072 5.94317566 96.18002284 C5.47807101 113.43661677 5.44641741 130.68596291 5.49324965 147.94758213 C5.5040031 152.37069974 5.50841669 156.7938248 5.51358032 161.21695185 C5.52316869 168.83812337 5.5361636 176.45928241 5.55130386 184.08044481 C5.57498038 196.14906323 5.58775947 208.21768282 5.59899902 220.2863183 C5.60299746 224.43890148 5.6070664 228.59148458 5.61115837 232.74406767 C5.6121776 233.78093221 5.61319683 234.81779676 5.61424694 235.88608144 C5.62592316 247.61360707 5.63982146 259.3411297 5.6546936 271.06865168 C5.65604604 272.13735011 5.65739847 273.20604854 5.65879188 274.30713177 C5.68103239 291.67269073 5.71092517 309.03823063 5.74266101 326.40377443 C5.77512146 344.32135683 5.79593677 362.23892919 5.80693328 380.15653759 C5.81411883 391.16364812 5.83069056 402.17066182 5.85973404 413.17773677 C5.87882502 420.71563437 5.88681713 428.25349373 5.88632907 435.79141527 C5.88639164 440.12637479 5.89118471 444.46118273 5.90949631 448.79610682 C6.02971015 478.66482151 6.02971015 478.66482151 4.29504395 491.28497553 C4.18697642 492.0761971 4.0789089 492.86741867 3.96756661 493.68261665 C3.07218522 499.11187383 1.47205918 504.42304176 -1.43466187 509.1343255 C-4.36044312 510.4155755 -4.36044312 510.4155755 -7.74716187 510.6343255 C-8.83641968 510.727138 -9.92567749 510.8199505 -11.04794312 510.9155755 C-11.70053101 510.94683527 -12.3531189 510.97809504 -13.02548218 511.01030207 C-14.87534511 511.10553214 -16.72354756 511.23347056 -18.57040405 511.37553644 C-28.22465811 512.10774842 -37.83541516 512.35217131 -47.51473999 512.37455988 C-50.06389093 512.38434173 -52.61225832 512.41553785 -55.16122437 512.4468255 C-79.79598669 512.60561214 -79.79598669 512.60561214 -88.43466187 505.1343255 C-90.51533578 502.01331463 -90.68561926 501.33090109 -90.69358158 497.7880826 C-90.70043037 496.89459506 -90.70727917 496.00110751 -90.7143355 495.08054459 C-90.71171865 494.09746618 -90.70910179 493.11438777 -90.70640564 492.10151911 C-90.71149248 491.05733139 -90.71657931 490.01314368 -90.72182029 488.93731391 C-90.73654787 485.41782389 -90.73701616 481.89847316 -90.73764038 478.37895441 C-90.74530016 475.85995444 -90.75384626 473.34095703 -90.76321411 470.82196283 C-90.78155069 465.37424643 -90.79380894 459.92656887 -90.80075264 454.478827 C-90.8109782 446.527178 -90.83309422 438.57559522 -90.85813855 430.62398069 C-90.89883735 417.62386239 -90.93121873 404.62373757 -90.95785522 391.62358332 C-91.01584553 363.35280623 -91.0887297 335.08207017 -91.16971569 306.8113499 C-91.18238709 302.380384 -91.1946526 297.9494172 -91.20661776 293.51844934 C-91.30193598 258.32853248 -91.48011217 223.14518698 -92.09004211 187.95985651 C-92.52291944 162.88705248 -92.5886607 137.81790139 -92.56503296 112.74174738 C-92.5591965 106.48986257 -92.56273475 100.23801944 -92.56860542 93.98613596 C-92.57224618 89.01495796 -92.57105873 84.04378965 -92.56847763 79.07261133 C-92.56782519 76.7655078 -92.56857543 74.4584033 -92.57095718 72.15130091 C-92.58056052 60.31244733 -92.44681915 48.49537781 -91.98495483 36.66459894 C-91.94570955 35.65275663 -91.90646427 34.64091433 -91.86602974 33.59841013 C-91.60211404 27.46175049 -91.15530795 21.3663533 -90.49716187 15.2593255 C-90.42323149 14.57310995 -90.34930111 13.8868944 -90.27313042 13.17988443 C-89.84608725 9.78792611 -89.37440051 8.04393347 -87.43466187 5.1343255 C-81.25792019 2.72854013 -74.04154297 2.58137447 -67.49716187 2.0718255 C-66.6109314 1.99383722 -65.72470093 1.91584894 -64.81161499 1.83549738 C-43.25891076 0.08171311 -21.60916468 -0.02092196 0 0 Z " fill="#1D2C3A" transform="translate(1695.4346618652344,-0.13432550430297852)"/>
<path d="M0 0 C2.57924071 0.00952686 5.15848516 0.01807748 7.73773193 0.02578735 C13.64721383 0.04472061 19.55662863 0.0713182 25.46606445 0.10119629 C35.90320753 0.15310729 46.34038635 0.18153328 56.77761745 0.20919752 C78.38521148 0.26673796 99.99267532 0.34446481 121.60015106 0.43600082 C134.7809654 0.49164058 147.96177073 0.54071962 161.1426394 0.58158052 C170.5545801 0.61131227 179.96647374 0.64850286 189.37836432 0.69122756 C194.95066828 0.71631654 200.52293873 0.73815801 206.09528351 0.75178146 C211.28676889 0.76460671 216.47813327 0.78666539 221.66955185 0.81582069 C223.56540243 0.82486547 225.46127238 0.83057944 227.3571434 0.83265114 C229.94984054 0.8359926 232.54219912 0.85151619 235.13482666 0.8699646 C235.87631903 0.86802987 236.6178114 0.86609513 237.38177323 0.86410177 C243.52060553 0.92912212 250.17718551 1.25398289 255.203125 5.0234375 C258.35464571 9.48809184 257.89341519 14.57355346 257.94140625 19.859375 C257.949478 20.70513092 257.95754974 21.55088684 257.96586609 22.42227173 C257.97967432 24.2092282 257.99041101 25.99621068 257.99829102 27.78320312 C258.00982485 29.60652417 258.03029885 31.42981108 258.05981445 33.25292969 C258.10253947 35.89281061 258.11866495 38.53169105 258.12890625 41.171875 C258.14641434 41.98143646 258.16392242 42.79099792 258.18196106 43.62509155 C258.16176944 48.92183071 257.2542546 51.96773242 253.703125 56.1484375 C246.55746818 59.63817688 237.61462726 59.29805018 229.80027771 59.26869202 C228.5269253 59.26997365 228.5269253 59.26997365 227.22784859 59.27128118 C224.40895705 59.27291647 221.59012621 59.26744685 218.77124023 59.26196289 C216.74038189 59.26168057 214.70952345 59.26183963 212.67866516 59.2624054 C207.1834966 59.26269162 201.68834999 59.25682311 196.19318652 59.24983144 C190.44365727 59.24356883 184.69412748 59.2429918 178.94459534 59.24180603 C168.06510507 59.23870128 157.18562488 59.23049944 146.30613905 59.22045654 C131.59898336 59.20717577 116.8918249 59.20178858 102.18466473 59.19595432 C79.02414394 59.18655898 55.86364442 59.16663433 32.703125 59.1484375 C32.703125 112.2784375 32.703125 165.4084375 32.703125 220.1484375 C43.38197656 220.81586572 53.86002219 221.27962636 64.52929688 221.21435547 C66.03589722 221.20914347 67.5424994 221.20443922 69.04910278 221.20019531 C72.25623785 221.1903666 75.46334139 221.17756318 78.67045593 221.16247177 C83.74826893 221.13913939 88.82607833 221.12602845 93.90393066 221.11477661 C108.33021149 221.08155541 122.7564316 221.03955678 137.18261719 220.97705078 C145.1784259 220.94249202 153.17419187 220.91871111 161.17006731 220.90684235 C166.21247198 220.89877369 171.25459319 220.87760688 176.29690647 220.84663749 C179.43299717 220.8305868 182.56900752 220.82721814 185.70513535 220.82740784 C187.15310867 220.82499515 188.60108443 220.81745904 190.04899979 220.80427933 C206.79224052 220.65827358 206.79224052 220.65827358 212.21126556 225.49433708 C220.24890053 234.48600854 219.12701671 246.8372218 218.703125 258.1484375 C218.24492677 263.31953178 217.64326515 266.92103231 214.453125 271.0859375 C203.15151256 279.56214683 187.9963482 278.44218693 174.49633789 278.28369141 C172.91257262 278.27302387 171.32880087 278.26328492 169.74502468 278.25438499 C165.55234501 278.2283167 161.35987293 278.18975327 157.16732025 278.14836121 C153.21473943 278.11130096 149.2621145 278.0858298 145.30944824 278.05932617 C133.7947512 277.97551109 122.2801933 277.87338618 110.765625 277.7734375 C85.005 277.5671875 59.244375 277.3609375 32.703125 277.1484375 C32.703125 334.8984375 32.703125 392.6484375 32.703125 452.1484375 C85.44910199 452.99839466 85.44910199 452.99839466 138.18529391 453.15103674 C142.10186894 453.13251312 146.01846774 453.12400271 149.93507385 453.11477661 C163.03530965 453.08250852 176.13546304 453.03841257 189.2355957 452.97705078 C196.6227224 452.94255136 204.00980425 452.9187586 211.39700276 452.90684235 C215.99426756 452.89883514 220.59121637 452.87785903 225.18837917 452.84663749 C228.00750564 452.83064159 230.82654249 452.82721754 233.64570999 452.82740784 C235.56194299 452.82384367 237.47812998 452.80530983 239.39427185 452.7862854 C246.22938311 452.80227101 250.95492469 453.17799005 256.47387695 457.55175781 C261.10922588 463.57264798 261.16279876 472.13944776 261.015625 479.3984375 C261.00196899 480.76053345 261.00196899 480.76053345 260.98803711 482.15014648 C260.82694572 490.94791547 259.97309539 499.62071088 257.703125 508.1484375 C250.07853578 509.4295675 242.54428422 510.31218578 234.8276062 510.6802063 C233.59093368 510.74181275 233.59093368 510.74181275 232.32927787 510.80466378 C223.73051723 511.21893387 215.12985051 511.49259476 206.52392578 511.70263672 C205.6832708 511.72359901 204.84261582 511.74456131 203.97648644 511.76615882 C182.59787039 512.28646934 161.21975885 512.2958471 139.83599234 512.282763 C134.23547926 512.28016826 128.63496752 512.28259582 123.03445435 512.28414917 C113.6541514 512.28594918 104.27385642 512.28362086 94.89355469 512.27880859 C84.13922963 512.27335421 73.38492351 512.275146 62.6305989 512.280635 C53.28332704 512.28520966 43.93606078 512.28579608 34.58878815 512.28319633 C29.05517971 512.2816593 23.52158009 512.28136756 17.98797226 512.28473282 C-21.15779002 512.30503004 -21.15779002 512.30503004 -39.65966797 511.76513672 C-40.83621508 511.73479403 -42.01276218 511.70445133 -43.22496223 511.67318916 C-49.48777735 511.45265449 -55.26338866 510.8984357 -61.296875 509.1484375 C-68.63927418 498.18596637 -65.4624228 472.90495853 -65.8203125 459.78515625 C-65.85117352 458.66584906 -65.85117352 458.66584906 -65.882658 457.5239296 C-66.55180849 432.59801905 -66.6767794 407.66176742 -66.8444438 382.72851419 C-66.85942831 380.51556473 -66.87479739 378.30261824 -66.8902626 376.08967209 C-67.38378847 305.13996285 -67.43813801 234.18812809 -67.47431756 163.23697698 C-67.47998636 152.20511691 -67.48968367 141.1732677 -67.50243729 130.14141364 C-67.51907955 115.73423673 -67.52872554 101.32708199 -67.52662516 86.91989475 C-67.52574277 79.84121234 -67.52790951 72.7625645 -67.53874588 65.68388939 C-67.54877396 59.11400591 -67.54856539 52.54417929 -67.54134834 45.97428823 C-67.54032893 43.58298999 -67.54268477 41.19168743 -67.54875386 38.80039668 C-67.60358811 15.69264716 -67.60358811 15.69264716 -65.296875 6.1484375 C-56.3407198 3.43524931 -47.60904713 1.76494049 -38.28417969 1.02490234 C-37.23908611 0.94103964 -36.19399254 0.85717693 -35.11722946 0.77077293 C-23.40770373 -0.09322323 -11.7343967 -0.07917694 0 0 Z " fill="#1D2C3A" transform="translate(2103.296875,-0.1484375)"/>
<path d="M0 0 C1.12055259 -0.01369375 2.24110518 -0.0273875 3.39561391 -0.04149622 C5.50940465 -0.06764284 7.62310093 -0.10534773 9.73641086 -0.15746361 C17.11874751 -0.22873787 24.7824066 0.31642871 30.66866302 5.17259026 C34.42941475 12.53739572 34.50163758 20.93381306 34.41866302 29.04759026 C34.41117035 30.0125341 34.40367767 30.97747795 34.39595795 31.97166252 C34.24307703 42.07632232 34.01961496 50.23149553 27.16866302 58.11009026 C24.20339334 59.5927251 21.53529604 59.2484603 18.22492218 59.26157951 C17.5017295 59.26581192 16.77853682 59.27004434 16.03342921 59.274405 C13.59665293 59.28747693 11.15990942 59.29346687 8.72310638 59.29954338 C6.98014373 59.30748371 5.23718306 59.31587149 3.49422455 59.32467461 C-0.27022029 59.34277026 -4.03466063 59.35777374 -7.79912758 59.37045097 C-13.77525975 59.39069671 -19.75134351 59.41835756 -25.72743988 59.44712639 C-37.37083753 59.50219647 -49.01425866 59.55023247 -60.65769196 59.59706688 C-75.39364865 59.65636951 -90.12959208 59.71721017 -104.86550039 59.78763914 C-109.81991181 59.8110955 -114.7743161 59.83268425 -119.72875404 59.84972954 C-147.75575025 59.9406065 -147.75575025 59.9406065 -175.76369476 60.90122795 C-181.12050812 61.15837749 -186.46952547 61.15478042 -191.83133698 61.11009026 C-196.18347043 109.89662334 -197.70493351 160.7968774 -192.95633698 209.61009026 C-192.8569986 210.70764641 -192.8569986 210.70764641 -192.75565338 211.82737541 C-192.44646521 214.52964052 -192.09322413 216.69244015 -190.63602448 219.01634026 C-185.13297853 222.35151962 -177.28260154 221.23667575 -171.07913971 221.20774651 C-169.30891953 221.20555611 -169.30891953 221.20555611 -167.50293732 221.20332146 C-164.26741993 221.19852276 -161.03194836 221.18933326 -157.79644656 221.17855263 C-154.36912274 221.16849365 -150.94179309 221.16503955 -147.5144577 221.16111565 C-138.03490916 221.14909848 -128.5553877 221.12737895 -119.07585907 221.10488701 C-55.35319681 220.95377453 -55.35319681 220.95377453 -33.80399323 221.54759026 C-33.06785734 221.56723839 -32.33172146 221.58688652 -31.57327843 221.60713005 C-24.27399311 221.81077083 -17.07391556 222.16551394 -9.83133698 223.11009026 C-6.23577723 239.90100517 -5.66488569 257.34663392 -9.83133698 274.11009026 C-17.38611883 281.66487211 -43.17726801 278.42978066 -53.77175522 278.4404583 C-58.3375511 278.43664714 -62.90300721 278.40798084 -67.46866608 278.37437248 C-70.51128361 278.35548025 -73.55383897 278.35127186 -76.59650707 278.34753799 C-93.60033431 278.32450115 -110.58088994 278.0281506 -127.57514191 277.46442986 C-136.92025202 277.15633675 -146.25290075 276.95078162 -155.60306549 276.97971916 C-157.69810554 276.98523308 -159.79294245 276.97960459 -161.8879776 276.97337151 C-172.89079174 276.96866885 -183.84783936 277.48571273 -194.83133698 278.11009026 C-194.8188089 278.97512169 -194.80628082 279.84015312 -194.79337311 280.73139763 C-194.62960558 292.14916966 -194.47668354 303.56706898 -194.33133698 314.98509026 C-194.31945972 315.91761494 -194.30758247 316.85013962 -194.29534531 317.81092262 C-193.89312897 349.68205093 -193.74144831 381.54902571 -193.76883698 413.42259026 C-193.76969299 414.42603226 -193.77054901 415.42947426 -193.77143097 416.46332359 C-193.78264233 428.6789314 -193.80244181 440.8945118 -193.83133698 453.11009026 C-192.62213593 453.10910835 -191.41293488 453.10812645 -190.16709137 453.10711479 C-173.84088341 453.09534275 -157.51468757 453.09902547 -141.18848038 453.10872555 C-138.7832286 453.11011811 -136.37797678 453.11135599 -133.97272491 453.11258507 C-112.2355204 453.1243093 -90.49855632 453.1619297 -68.76148987 453.24218369 C-59.1122179 453.27723105 -49.46309832 453.30226112 -39.81375885 453.3056469 C-31.23381354 453.30867971 -22.65411874 453.32899896 -14.07427049 453.37061483 C-9.57619605 453.39185533 -5.0784778 453.40458512 -0.58035278 453.39624405 C3.60006817 453.38874943 7.77974855 453.40433561 11.96003342 453.43815041 C13.49072714 453.44641188 15.02149417 453.44610051 16.55218124 453.43668747 C18.63569577 453.42513351 20.71674968 453.44406444 22.80007172 453.47085381 C23.96476109 453.47361918 25.12945045 453.47638456 26.32943344 453.47923374 C29.16866302 454.11009026 29.16866302 454.11009026 31.02820206 456.51745892 C32.060256 458.86364652 32.71834816 460.81348948 33.11788177 463.33274651 C33.2439682 464.11254875 33.37005463 464.892351 33.49996185 465.69578362 C33.61750824 466.51312981 33.73505463 467.330476 33.85616302 468.17259026 C33.98208832 469.02022942 34.10801361 469.86786858 34.23775482 470.74119377 C35.79279739 481.79915729 36.71608845 494.40361434 31.92256927 504.81712151 C29.78835852 507.60728122 28.23035906 508.26852564 24.91866302 509.36009026 C24.00600677 509.67462151 23.09335052 509.98915276 22.15303802 510.31321526 C15.22296504 512.16365359 8.5140366 512.25485776 1.38326263 512.24380302 C0.30728475 512.24606858 -0.76869314 512.24833414 -1.87727642 512.25066835 C-5.47785965 512.25699128 -9.07840506 512.25618004 -12.67899323 512.25535393 C-15.26336465 512.2583467 -17.84773563 512.26174951 -20.43210602 512.26553154 C-26.72411027 512.27382742 -33.01610515 512.27658601 -39.30811441 512.27714392 C-44.43217945 512.27762013 -49.55624141 512.27968014 -54.68030548 512.28284454 C-69.24222232 512.29165268 -83.8041318 512.29626434 -98.36605132 512.29551407 C-99.15059168 512.29547411 -99.93513204 512.29543416 -100.74344635 512.29539299 C-101.52895823 512.29535211 -102.31447011 512.29531123 -103.12378538 512.29526911 C-115.81453966 512.29486387 -128.50526409 512.30440201 -141.19600976 512.31853136 C-154.2604179 512.3329604 -167.32481157 512.33979779 -180.38922787 512.33893758 C-187.70996039 512.33860757 -195.03066174 512.34126682 -202.35138702 512.35211563 C-209.25265564 512.3622777 -216.15385797 512.36181918 -223.05513 512.354599 C-225.57074073 512.35356307 -228.08635569 512.35585609 -230.60195923 512.36195946 C-242.58399063 512.38911669 -254.50234063 512.24090247 -266.45121002 511.28240776 C-267.3695226 511.21325541 -268.28783518 511.14410305 -269.23397541 511.07285517 C-274.93550536 510.55145226 -280.66608943 509.71693454 -285.83133698 507.11009026 C-292.26140479 497.46498853 -290.05893615 479.07985704 -290.35086823 467.84837151 C-290.37132076 467.07827185 -290.3917733 466.30817219 -290.41284561 465.51473618 C-291.11594675 438.36451574 -291.25324436 411.20222356 -291.43987131 384.04452705 C-291.45641169 381.66182719 -291.47348998 379.27913172 -291.49071121 376.89643669 C-292.05503505 298.41390312 -291.6511403 219.9345472 -291.23807526 141.45213127 C-291.22848689 139.62500738 -291.22848689 139.62500738 -291.21870482 137.7609719 C-291.1578037 126.17538887 -291.09627333 114.58981268 -291.02790886 103.00427097 C-291.00944796 99.84531507 -290.99178215 96.68635551 -290.97425556 93.52739429 C-290.95166628 89.46242101 -290.92574678 85.39748799 -290.89768505 81.3325491 C-290.83759154 71.84468127 -290.82306356 62.36048424 -290.92075187 52.87277937 C-290.96728198 48.33996171 -291.00056233 43.80707471 -291.0342654 39.27414608 C-291.05483127 37.11787935 -291.08273719 34.96166831 -291.11850464 32.80560017 C-291.16793543 29.82433946 -291.1928348 26.84374657 -291.21303558 23.86216545 C-291.23448902 22.98966306 -291.25594247 22.11716066 -291.27804601 21.2182188 C-291.28582114 15.45984508 -290.25723062 10.84697482 -286.83133698 6.11009026 C-274.03758623 -2.15254044 -253.69596258 0.94033723 -239.16043854 0.90476799 C-236.66709486 0.89517497 -234.17375276 0.88516408 -231.68041229 0.87476921 C-225.63321294 0.85062453 -219.58601365 0.83083158 -213.53879353 0.81301647 C-206.4698934 0.79196123 -199.40101625 0.76553824 -192.33213553 0.738845 C-179.69532505 0.69127495 -167.05850366 0.64800396 -154.42166901 0.60740471 C-142.21625595 0.56818337 -130.01085365 0.52674325 -117.80545807 0.48240471 C-116.680297 0.4783183 -116.680297 0.4783183 -115.53240541 0.47414934 C-112.51535901 0.46318372 -109.49831267 0.45220465 -106.48126639 0.4412072 C-83.24298631 0.35654267 -60.00469669 0.27404613 -36.76638603 0.19819832 C-34.35158938 0.19027331 -31.93679315 0.18221667 -29.52199745 0.17400742 C-27.83156728 0.16828311 -27.83156728 0.16828311 -26.106987 0.16244316 C-25.0054373 0.15860434 -23.90388761 0.15476551 -22.76895761 0.15081036 C-20.61945931 0.14456001 -18.46995391 0.14036006 -16.32044744 0.1383599 C-10.87893804 0.13244074 -5.44077473 0.09279763 0 0 Z " fill="#1D2C3A" transform="translate(1033.8313369750977,-0.11009025573730469)"/>
<path d="M0 0 C1.21973511 -0.00287018 2.43947021 -0.00574036 3.69616699 -0.00869751 C6.25757312 -0.01072569 8.81899519 -0.00528384 11.38037109 0.00732422 C15.27086466 0.0233946 19.16031948 0.00743157 23.05078125 -0.01171875 C25.55468976 -0.0097361 28.05859764 -0.00589197 30.5625 0 C31.70972534 -0.00607269 32.85695068 -0.01214539 34.03894043 -0.0184021 C42.64354647 0.0554663 53.12004993 0.24590294 59.78125 6.3984375 C60.37130076 8.59646887 60.37130076 8.59646887 60.49689579 11.19493771 C60.57984825 12.66927975 60.57984825 12.66927975 60.66447651 14.17340648 C60.70301176 15.23766672 60.74154701 16.30192695 60.78125 17.3984375 C60.83317092 18.48885003 60.88509184 19.57926256 60.93858612 20.7027179 C61.09856328 24.35282811 61.22012415 28.00250655 61.33091736 31.6544342 C61.35180233 32.32360696 61.3726873 32.99277971 61.39420515 33.68223042 C61.84178908 48.19183033 61.95324078 62.69862007 61.98185861 77.21480596 C61.99008631 80.85886738 62.0037059 84.50290994 62.01657104 88.1469574 C62.04083395 95.2448415 62.06040967 102.34273064 62.07832379 109.44063329 C62.09957966 117.77737651 62.12594685 126.11410151 62.15249526 134.45082927 C62.19990625 149.38477186 62.2431991 164.31872338 62.28393555 179.25268555 C62.3230698 193.59676938 62.36453006 207.94084359 62.40893555 222.28491211 C62.41165982 223.16509974 62.41438409 224.04528737 62.41719092 224.95214736 C62.42816299 228.49514778 62.43914218 232.03814817 62.45013306 235.58114853 C62.49824109 251.10826916 62.5444225 266.63539562 62.59030947 282.16252294 C62.59759562 284.62404707 62.60491998 287.08557107 62.61225247 289.54709506 C62.67238802 309.7668288 62.72697066 329.98656333 62.76826655 350.20634503 C62.77674491 354.33616482 62.78605915 358.46598166 62.79599751 362.59579818 C62.8132556 369.79059113 62.82620399 376.98537979 62.83456409 384.18018925 C62.83785232 386.54461862 62.84240384 388.90904667 62.84838784 391.27347076 C62.99421845 451.06230849 56.10235683 513.17097455 12.23046875 557.91845703 C10.68073205 559.50108908 9.15339536 561.10379658 7.625 562.70703125 C-17.0559506 588.31194676 -49.52716184 601.06349739 -84.21875 606.3984375 C-84.88849854 606.5030127 -85.55824707 606.60758789 -86.24829102 606.71533203 C-94.08227103 607.7611099 -102.01675567 607.64228174 -109.90625 607.6484375 C-111.07234299 607.64944962 -111.07234299 607.64944962 -112.26199341 607.65048218 C-125.11653097 607.63280828 -137.58602283 606.95162047 -150.21875 604.3984375 C-151.47051025 604.14900391 -151.47051025 604.14900391 -152.74755859 603.89453125 C-165.82748484 601.18470575 -178.0176855 596.78481759 -190.21875 591.3984375 C-190.9195166 591.09599121 -191.6202832 590.79354492 -192.34228516 590.48193359 C-209.2838493 583.06923181 -224.18574144 571.41255764 -237.21875 558.3984375 C-238.14945313 557.47933594 -239.08015625 556.56023438 -240.0390625 555.61328125 C-263.64520318 531.55718814 -275.55061252 496.24048965 -275.52905273 463.08154297 C-275.25396134 442.30387528 -267.37014251 421.64490032 -252.59765625 406.765625 C-244.97352402 399.8345957 -234.63627074 400.24448143 -224.9296875 400.265625 C-223.94940582 400.26466827 -222.96912415 400.26371155 -221.95913696 400.26272583 C-219.88991227 400.26204758 -217.82068541 400.26387705 -215.75146484 400.26806641 C-212.6246243 400.27338498 -209.49792966 400.26812721 -206.37109375 400.26171875 C-196.27403603 400.25869658 -186.27003782 400.33286992 -176.21875 401.3984375 C-173.75604185 410.00696808 -178.3782631 420.12891861 -181.21875 428.3359375 C-189.72373103 453.35120314 -190.77079617 481.1010235 -179.69140625 505.59765625 C-169.32962731 525.30427561 -154.19701574 538.42455242 -132.96875 545.1484375 C-116.24824117 550.10693322 -96.76533425 548.17172963 -81.21875 540.3984375 C-60.57336658 529.1098799 -46.53126364 509.92588881 -39.80883789 487.60205078 C-35.31789899 471.5126046 -34.16672787 454.8564736 -33.66036987 438.23446655 C-33.6393217 437.55262497 -33.61827352 436.87078338 -33.59658752 436.16827993 C-33.06170067 418.3955789 -33.10336983 400.62355161 -33.14666152 382.84464622 C-33.15735114 377.95472434 -33.16181622 373.06479599 -33.16699219 368.17486572 C-33.17660723 359.74055983 -33.18961224 351.30626506 -33.20471573 342.87196732 C-33.22830486 329.53390281 -33.24114705 316.19583735 -33.25241089 302.85775757 C-33.25640984 298.27670474 -33.26047871 293.69565197 -33.26457024 289.11459923 C-33.26558946 287.97061197 -33.26660869 286.8266247 -33.26765881 285.64797116 C-33.27934861 272.69223269 -33.29324465 259.73649691 -33.30810547 246.78076172 C-33.31013412 245.00849974 -33.31013412 245.00849974 -33.31220375 243.20043449 C-33.33446346 223.98423113 -33.36435224 204.76804489 -33.39607288 185.55185516 C-33.4284554 165.76428146 -33.4493241 145.97671681 -33.46034515 126.1891197 C-33.46755884 114.01068135 -33.4842265 101.8323297 -33.51314591 89.6539232 C-33.5321362 81.32553539 -33.54023137 72.99718217 -33.53974093 64.66877289 C-33.53980394 59.86737401 -33.54477143 55.0661113 -33.56290817 50.2647438 C-33.57942158 45.86759367 -33.58200309 41.47066031 -33.57365941 37.07348911 C-33.57308698 35.48611525 -33.57757019 33.89872948 -33.58772077 32.31138797 C-33.64532518 22.7901257 -33.6883489 13.65879712 -28.28125 5.4609375 C-20.04994567 -0.08259399 -9.60144405 -0.05082403 0 0 Z " fill="#1D2C3A" transform="translate(275.21875,0.6015625)"/>
<path d="M0 0 C8.2199174 0.00374551 16.43982267 0.00243256 24.65973961 -0.00180173 C71.25642094 -0.02514262 117.85058669 0.00394441 164.44469345 0.54248166 C167.12327888 0.57331877 169.80187475 0.60307316 172.48047364 0.63271594 C187.64106978 0.80362009 202.80061278 0.97781955 217.95075524 1.60073733 C219.34607491 1.65642729 219.34607491 1.65642729 220.76958287 1.71324229 C221.60408121 1.75232141 222.43857955 1.79140052 223.29836571 1.83166385 C224.00981397 1.86479112 224.72126223 1.89791839 225.45426953 1.93204951 C227.31672204 2.12856936 227.31672204 2.12856936 230.31672204 3.12856936 C231.96741877 11.51905992 232.65459185 19.58401545 232.62922204 28.12856936 C232.64533532 29.21395999 232.6614486 30.29935061 232.67805016 31.41763186 C232.68316781 39.99480957 232.47179876 50.50480602 226.31672204 57.12856936 C218.74883717 59.61082821 210.31953189 59.41467423 202.43000329 59.35903811 C200.77982453 59.35835078 200.77982453 59.35835078 199.09630883 59.35764956 C196.7777604 59.35464795 194.45921361 59.34682507 192.14069664 59.33437991 C188.68301856 59.31634989 185.22561375 59.31386938 181.76789391 59.31411624 C169.63410487 59.29451207 157.53675891 59.03068139 145.41509545 58.49513125 C135.76169905 58.0776148 126.11789549 57.90888154 116.45588219 57.88833499 C114.59516649 57.88176118 112.73446384 57.86795344 110.87385094 57.84731936 C99.2754624 57.71873858 88.59263007 58.24266818 77.31672204 61.12856936 C73.07406324 71.69519128 73.16642191 82.65154173 73.17145836 93.89639163 C73.16814507 95.0170631 73.16483178 96.13773458 73.16141808 97.29236579 C73.15203862 101.00991254 73.15008933 104.72741784 73.14875329 108.44497561 C73.14583721 110.43567785 73.14291689 112.42638009 73.13968784 114.41708183 C73.12722891 122.33045105 73.12601601 130.24379873 73.12824547 138.15717578 C73.12929268 141.94588287 73.12866882 145.73458762 73.12760258 149.52329463 C73.11630137 194.36298313 73.50731709 239.18420514 74.28136885 284.01690698 C74.94892587 322.71024607 75.53682144 361.3973647 75.56348717 400.09758258 C75.56663164 403.04387015 75.57365165 405.9901228 75.58185875 408.93640018 C75.63180359 429.06067786 75.34516889 449.14606677 74.48859704 469.25356936 C74.43675633 470.58042254 74.43675633 470.58042254 74.38386834 471.93408084 C74.02241613 480.91651467 73.41908927 489.80021584 71.99347985 498.68325686 C71.88861638 499.39257358 71.7837529 500.10189029 71.67571175 500.83270144 C71.11994391 503.95180361 70.65050633 505.80058684 68.36085045 508.05044436 C52.56084727 516.38376544 24.74468763 512.4125991 7.37922204 511.69106936 C6.43216393 511.65191409 5.48510582 511.61275882 4.50934899 511.57241702 C1.77671981 511.44725843 -0.95261932 511.29066665 -3.68327796 511.12856936 C-4.60447425 511.09191165 -5.52567054 511.05525393 -6.47478187 511.01748538 C-13.10005347 510.61630111 -13.10005347 510.61630111 -15.90202796 508.27310061 C-16.32484046 507.5035303 -16.74765296 506.73395999 -17.18327796 505.94106936 C-17.64089515 505.11993655 -18.09851234 504.29880374 -18.56999671 503.45278811 C-23.36391455 493.44443333 -22.80574492 482.78126347 -22.2528733 471.91171145 C-21.76661797 460.51248253 -21.5737783 449.13662624 -21.56302345 437.72775149 C-21.56218663 436.90641866 -21.56134982 436.08508583 -21.56048764 435.23886412 C-21.55687001 429.95913625 -21.56118511 424.67943245 -21.56721234 419.39970803 C-21.57160052 414.56034587 -21.57006459 409.72098472 -21.56931007 404.88162112 C-21.56879005 396.53125822 -21.57188174 388.18090324 -21.57754791 379.83054233 C-21.58573446 367.75787024 -21.58828539 355.68520191 -21.5895359 343.61252734 C-21.59171528 324.01728658 -21.59834491 304.42205003 -21.60783851 284.82681155 C-21.61704162 265.81118676 -21.62410821 246.79556312 -21.62834632 227.77993655 C-21.62860905 226.60444256 -21.62887177 225.42894857 -21.62914246 224.21783355 C-21.63044765 218.3197191 -21.63171132 212.42160465 -21.63295436 206.52349019 C-21.64329223 157.72518035 -21.66087993 108.92687506 -21.68327796 60.12856936 C-28.34233853 60.11571438 -35.00139581 60.10706188 -41.66046607 60.10110354 C-43.91789324 60.09861517 -46.17531961 60.09522327 -48.43274391 60.09084964 C-61.67315488 60.06587085 -74.88843136 60.14064992 -88.12077796 60.62856936 C-89.45997015 60.67659296 -90.79916791 60.72446113 -92.13837135 60.77216983 C-93.29787803 60.81372699 -94.45738472 60.85528415 -95.65202796 60.89810061 C-147.53841946 62.69931591 -147.53841946 62.69931591 -168.68327796 55.12856936 C-169.43609046 54.86044436 -170.18890296 54.59231936 -170.96452796 54.31606936 C-174.18359178 52.09198891 -174.28531 48.51928005 -175.08171546 44.87856936 C-177.23281711 31.46910455 -178.88354963 16.30762795 -170.90202796 4.55435061 C-169.06904161 2.40999158 -167.8304144 2.14502054 -165.02780616 1.83166385 C-153.13466365 1.04915971 -141.24355347 0.7756865 -129.32780921 0.57388186 C-128.12561052 0.55294593 -126.92341182 0.53200999 -125.68478286 0.51043963 C-83.79521338 -0.19042086 -41.89385719 -0.02128446 0 0 Z " fill="#1D2C3A" transform="translate(3024.683277964592,-0.1285693645477295)"/>
<path d="M0 0 C2.73305238 0.03106293 5.46551887 0.04098974 8.19873047 0.046875 C13.63382005 0.06953237 19.06584543 0.15695519 24.49951172 0.28125 C25.90366333 0.31230835 25.90366333 0.31230835 27.33618164 0.34399414 C30.1362961 0.41478288 32.93472606 0.50802101 35.73388672 0.609375 C36.56760803 0.63086609 37.40132935 0.65235718 38.26031494 0.67449951 C48.4427214 1.10890731 57.12127017 3.72647974 64.28466797 11.125 C74.41625706 22.94171992 81.49059923 37.4995015 89.22021484 50.93237305 C94.55330967 60.16600265 100.13307845 69.24869861 105.70117188 78.34179688 C108.64260653 83.14968083 111.57046331 87.96581402 114.49951172 92.78125 C115.66611124 94.69795754 116.83277795 96.61462418 117.99951172 98.53125 C152.99951172 156.03125 152.99951172 156.03125 154.74902344 158.90551758 C155.91723512 160.82467593 157.08552956 162.7437839 158.25390625 164.6628418 C161.14761057 169.41597879 164.03993217 174.1699455 166.92919922 178.92578125 C173.12886661 189.12679603 179.35838394 199.30840591 185.62451172 209.46875 C190.78238612 217.83328485 195.88621311 226.22621494 200.921875 234.66479492 C205.05413298 241.57434696 209.27121496 248.43013758 213.49951172 255.28125 C218.69997167 263.70755917 223.84746417 272.16106043 228.92138672 280.6640625 C233.05390047 287.57380323 237.2710606 294.42988748 241.49951172 301.28125 C246.69997167 309.70755917 251.84746417 318.16106043 256.92138672 326.6640625 C261.05390047 333.57380323 265.2710606 340.42988748 269.49951172 347.28125 C274.69997167 355.70755917 279.84746417 364.16106043 284.92138672 372.6640625 C289.05390047 379.57380323 293.2710606 386.42988748 297.49951172 393.28125 C302.21396065 400.92007515 306.89958797 408.57288576 311.49951172 416.28125 C316.65747364 424.92208857 321.92418197 433.49333787 327.20849609 442.05737305 C333.0383196 451.51280873 338.81053224 461.00228939 344.56469727 470.50390625 C345.22381104 471.591875 345.8829248 472.67984375 346.56201172 473.80078125 C347.20412598 474.86385498 347.84624023 475.92692871 348.5078125 477.0222168 C349.90005861 479.30036013 351.30574709 481.56269085 352.73730469 483.81567383 C353.10404297 484.39737839 353.47078125 484.97908295 353.84863281 485.57841492 C354.86740077 487.1912292 355.89390471 488.79914942 356.92089844 490.40673828 C359.21958635 494.59244064 359.6505048 497.52496785 359.49951172 502.28125 C358.05132999 506.02296356 356.10728333 507.58442858 352.53715515 509.47462463 C346.32696813 511.93300096 338.79564071 511.46059013 332.19873047 511.59765625 C330.89864548 511.62909981 330.89864548 511.62909981 329.57229614 511.66117859 C326.77728655 511.72698405 323.98220288 511.78620291 321.18701172 511.84375 C320.23386078 511.86393188 319.28070984 511.88411377 318.29867554 511.90490723 C312.5704992 512.02490177 306.84219305 512.13368783 301.11364746 512.23443604 C298.70346533 512.2775976 296.29338982 512.32452549 293.88330078 512.37255859 C290.02636328 512.44715364 286.16949284 512.49288948 282.31201172 512.53125 C281.21139404 512.5526001 280.11077637 512.5739502 278.97680664 512.59594727 C269.01177773 512.6393524 262.45997861 510.22255496 255.16748047 503.25 C243.42864965 490.1877578 235.25466124 473.60470031 226.37451172 458.53125 C221.91061044 450.95468331 217.38236257 443.41901759 212.81201172 435.90625 C212.46410583 435.33418823 212.11619995 434.76212646 211.75775146 434.17272949 C204.70901614 422.5886028 197.60164982 411.0405215 190.48339844 399.49902344 C186.48328121 393.01101642 182.49093538 386.51822395 178.49707031 380.02636719 C175.17877055 374.63321935 171.8587213 369.24116635 168.53466797 363.8515625 C161.50782722 352.4540009 154.51080582 341.03902871 147.56201172 329.59375 C146.55182983 327.93013428 146.55182983 327.93013428 145.52124023 326.23291016 C138.15077939 314.07894142 130.84838187 301.88617126 123.61303711 289.65136719 C116.8434422 278.20564796 110.02917734 266.79724488 102.99169922 255.51342773 C99.52204131 249.94751817 96.11397665 244.34884789 92.74951172 238.71875 C87.96932855 230.71984631 83.15114278 222.74459629 78.31201172 214.78125 C77.95288696 214.19020477 77.59376221 213.59915955 77.22375488 212.99020386 C75.38450201 209.96333524 73.54488356 206.93668904 71.70507812 203.91015625 C68.48691827 198.61579283 65.27203679 193.31943925 62.05697632 188.02319336 C60.28796226 185.10912675 58.51872548 182.19519537 56.74951172 179.28125 C56.04117732 178.11458398 55.33284399 176.94791731 54.62451172 175.78125 C54.27388672 175.20375 53.92326172 174.62625 53.56201172 174.03125 C50.37451172 168.78125 50.37451172 168.78125 49.31208801 167.03137207 C48.60350461 165.86429592 47.89491696 164.69722236 47.18632507 163.53015137 C45.41928296 160.61977084 43.65231388 157.70934603 41.88549805 154.79882812 C38.65285126 149.4737774 35.41959131 144.14910284 32.18373108 138.82600403 C25.53496564 127.88846728 18.88691853 116.95092672 12.31201172 105.96875 C10.37572354 102.73885512 8.43793957 99.50986113 6.49951172 96.28125 C5.96293945 95.38664062 5.42636719 94.49203125 4.87353516 93.5703125 C-3.92768512 78.92021213 -13.10017782 64.55306178 -22.50048828 50.28125 C-41.85220038 20.87730206 -41.85220038 20.87730206 -41.62548828 11.46875 C-41.60744141 10.49292969 -41.58939453 9.51710938 -41.57080078 8.51171875 C-41.54759766 7.77566406 -41.52439453 7.03960937 -41.50048828 6.28125 C-37.08446455 3.84382323 -32.89490402 2.45909695 -27.95361328 1.609375 C-27.22120422 1.48282532 -26.48879517 1.35627563 -25.73419189 1.22589111 C-17.17845306 -0.11088013 -8.63990289 -0.0983029 0 0 Z " fill="#1D2C3A" transform="translate(1172.50048828125,-0.28125)"/>
<path d="M0 0 C2.10388082 5.42052794 3.89274825 10.81888281 5.42919922 16.42407227 C5.76463242 17.63053658 5.76463242 17.63053658 6.10684204 18.8613739 C6.84290026 21.51211041 7.57381641 24.16423529 8.3046875 26.81640625 C8.82578826 28.69710299 9.34720808 30.57771135 9.868927 32.45823669 C11.2561904 37.46197869 12.63905723 42.4669259 14.02111816 47.47210693 C15.44228641 52.61563887 16.86784243 57.75795425 18.29296875 62.90039062 C22.70714509 78.83312374 27.11056752 94.7688275 31.50588989 110.70677185 C32.15599867 113.06413151 32.80627741 115.4214443 33.45675659 117.77870178 C34.82697321 122.74428329 36.19528074 127.71036289 37.55810547 132.67797852 C38.01785055 134.34783363 38.47764466 136.01767525 38.9375 137.6875 C39.13731476 138.41948105 39.33712952 139.1514621 39.54299927 139.90562439 C40.53823692 143.53856116 40.53823692 143.53856116 42 147 C44.28952076 138.9377424 46.57796472 130.8751796 48.86578369 122.81243896 C49.70426065 119.85751124 50.54293973 116.90264099 51.3817749 113.94781494 C56.39438762 96.28960827 61.39150357 78.62717194 66.35608292 60.95539474 C67.11953354 58.23820563 67.88340521 55.52113526 68.64743042 52.80410767 C69.15020761 51.01605227 69.65298471 49.22799685 70.15576172 47.43994141 C70.40242521 46.5627627 70.64908871 45.68558399 70.90322685 44.78182411 C72.3828181 39.51891456 73.85932104 34.25514958 75.33378983 28.99080276 C76.25553677 25.70241713 77.17997697 22.41479307 78.10513306 19.12736511 C78.53744265 17.58891339 78.96857024 16.050129 79.39846802 14.51100159 C79.98544615 12.40995537 80.57643827 10.3100797 81.16845703 8.21044922 C81.49975616 7.02909393 81.8310553 5.84773865 82.1723938 4.63058472 C83 2 83 2 84 1 C86.73894085 0.91141354 89.4525327 0.88476521 92.19140625 0.90234375 C93.01124496 0.9037587 93.83108368 0.90517365 94.67576599 0.90663147 C97.30471382 0.91224711 99.93357773 0.92480221 102.5625 0.9375 C104.34049357 0.94251299 106.11848846 0.94707624 107.89648438 0.95117188 C112.26435545 0.96222161 116.63216348 0.97949669 121 1 C121.37064575 2.8564917 121.37064575 2.8564917 121.7487793 4.75048828 C124.07373993 16.38796611 126.40582332 28.02398885 128.74430656 39.65875626 C130.43775721 48.08484053 132.12878744 56.51140906 133.81872749 64.93819809 C134.91966559 70.42737528 136.02167875 75.91633191 137.1262207 81.40478516 C141.68928433 104.08291403 146.20621027 126.76731263 150.44921875 149.5078125 C150.61058634 150.36897549 150.77195393 151.23013847 150.93821144 152.11739731 C151.98944093 157.73965895 153.01090189 163.36647605 154 169 C154.14620914 169.82744469 154.29241829 170.65488937 154.44305801 171.50740814 C154.88063706 174.0134184 155.30355661 176.52147923 155.72192383 179.03076172 C155.91613057 180.13930102 155.91613057 180.13930102 156.11426067 181.27023506 C157.10608208 187.38530805 157 192.58840203 157 199 C146.77 199 136.54 199 126 199 C121.57873499 182.70517321 118.67304047 166.29210173 115.95013428 149.65200806 C114.78903432 142.55662445 113.60045753 135.46581541 112.414505 128.37455177 C112.02107135 126.02093203 111.62847391 123.66717387 111.23596191 121.31340027 C109.1914221 109.06657933 107.08718504 96.83129149 104.88027954 84.61254883 C104.54582477 82.75913974 104.21373789 80.90530165 103.88412476 79.05102539 C103.43700848 76.53930853 102.98175537 74.02922488 102.5234375 71.51953125 C102.39688278 70.80320023 102.27032806 70.0868692 102.13993835 69.34883118 C101.49868821 65.90330841 100.64004617 63.08361176 99 60 C93.52041542 76.84141433 88.39334416 93.73084756 83.9296875 110.87109375 C83.7218589 111.66873768 83.5140303 112.46638161 83.29990387 113.28819656 C81.81418098 119.00187187 80.34334305 124.7193381 78.875 130.4375 C69.36507331 167.44898351 69.36507331 167.44898351 64.5703125 182.47265625 C64.25190399 183.47058701 63.93349548 184.46851776 63.60543823 185.49668884 C60.53706878 194.83762817 60.53706878 194.83762817 58 199 C55.41675988 199.73658654 53.6395209 199.93338931 51 200 C50.08138184 200.06106934 49.16276367 200.12213867 48.21630859 200.18505859 C45.04094688 200.39299016 41.86642211 200.54481947 38.6875 200.6875 C37.59115234 200.74744141 36.49480469 200.80738281 35.36523438 200.86914062 C33.79805664 200.9397168 33.79805664 200.9397168 32.19921875 201.01171875 C31.24877686 201.05772217 30.29833496 201.10372559 29.3190918 201.15112305 C27 201 27 201 25 199 C24.26965094 196.82172793 23.62585645 194.6142139 23.02319336 192.3972168 C22.74136357 191.3715926 22.74136357 191.3715926 22.45384026 190.32524872 C21.8261612 188.03492119 21.20809083 185.74210871 20.58984375 183.44921875 C20.14602616 181.82309687 19.70156986 180.19714918 19.2565155 178.57136536 C18.30551111 175.09270332 17.35857685 171.61296919 16.41485596 168.13232422 C14.93859957 162.68797226 13.45355057 157.24604746 11.96630859 151.8046875 C11.71894958 150.8995875 11.47159058 149.9944875 11.21673584 149.06196022 C10.7151888 147.22678281 10.21361965 145.39161143 9.7120285 143.55644608 C8.95396157 140.78173296 8.19676443 138.0067837 7.4397583 135.23178101 C2.72937126 117.9707242 -2.05941595 100.73195704 -6.875 83.5 C-7.49963438 81.26427506 -8.12425709 79.02854686 -8.74887085 76.79281616 C-10.49904426 70.52848738 -12.24945192 64.26422409 -14 58 C-14.11484867 58.61031948 -14.22969734 59.22063896 -14.34802628 59.84945297 C-17.16045955 74.79462438 -19.9741645 89.73955579 -22.78923416 104.6842308 C-24.15062622 111.91176845 -25.5116092 119.13938266 -26.87158203 126.3671875 C-28.0588321 132.67702214 -29.24689771 138.98670262 -30.43588805 145.29620957 C-31.0636912 148.62786399 -31.69112308 151.95958723 -32.31757355 155.29149628 C-35.12391607 170.21309058 -37.98895727 185.11826205 -41 200 C-51.56 200 -62.12 200 -73 200 C-71.64364396 190.5055077 -70.17594274 181.11757684 -68.40551758 171.703125 C-68.15031964 170.33420974 -67.89538399 168.96524556 -67.64068604 167.59623718 C-66.95495206 163.91438866 -66.26563232 160.23321992 -65.57564759 156.55216599 C-64.84402528 152.64529483 -64.1158918 148.73777345 -63.38737488 144.83032227 C-62.00271752 137.40639506 -60.61514284 129.98301642 -59.22642487 122.55984783 C-57.2163429 111.81456383 -55.21073212 101.06844526 -53.20495415 90.32235718 C-52.90388029 88.7093706 -52.60280468 87.09638435 -52.30172729 85.48339844 C-52.15377964 84.69076159 -52.00583198 83.89812473 -51.85340106 83.08146858 C-50.96890899 78.34323894 -50.08367027 73.60514952 -49.19781721 68.86717415 C-46.64987054 55.23912961 -44.10208764 41.61120928 -41.61083984 27.97265625 C-41.44003623 27.03864487 -41.26923262 26.10463348 -41.09325314 25.14231873 C-40.34876649 21.06824911 -39.60760584 16.99363164 -38.87324524 12.91772461 C-38.63000676 11.58055311 -38.38670096 10.24339385 -38.14331055 8.90625 C-37.9431987 7.79572266 -37.74308685 6.68519531 -37.53691101 5.54101562 C-37 3 -37 3 -36 1 C-23.98181423 0.13826069 -12.04753921 -0.11902069 0 0 Z " fill="#1D2C3A" transform="translate(2259,671)"/>
<path d="M0 0 C1.81420898 2.30297852 1.81420898 2.30297852 3.49609375 5.37890625 C4.1298291 6.51545654 4.76356445 7.65200684 5.41650391 8.82299805 C6.09028447 10.06943643 6.76394685 11.31593871 7.4375 12.5625 C8.14574316 13.84324551 8.8558913 15.12293929 9.56787109 16.40161133 C10.657809 18.36006183 11.74628234 20.31919965 12.82843018 22.28196716 C16.15417135 28.31378383 19.62529422 34.25510231 23.125 40.1875 C28.55022131 49.43515915 33.81333109 58.76620636 39.02954102 68.13305664 C42.67810432 74.67372989 46.40339924 81.1582647 50.234375 87.59350586 C54.40439985 94.62187767 58.39057017 101.75352732 62.35961914 108.89697266 C66.73823222 116.71812401 71.39628937 123.99536171 77 131 C77.33 87.77 77.66 44.54 78 0 C89.55 -0.33 101.1 -0.66 113 -1 C113.13208002 16.64146404 113.26278051 34.28293664 113.39115143 51.92442799 C113.4508368 60.12109329 113.51108916 68.31775363 113.57275391 76.5144043 C113.7061284 94.27803209 113.83145086 112.04167082 113.93755627 129.80548441 C113.94172715 130.50375232 113.94589804 131.20202022 113.95019531 131.92144775 C113.95429318 132.60919324 113.95839106 133.29693873 113.96261311 134.00552499 C113.98922617 138.40750392 114.02019843 142.80943336 114.05371094 147.21136475 C114.09269644 152.36553323 114.12243465 157.51965126 114.14305115 162.6739254 C114.15166723 164.44481142 114.16368916 166.21568509 114.17958069 167.98652077 C114.37349684 190.17177928 114.37349684 190.17177928 110.0625 197.125 C107.04432778 199.86879292 104.53444568 200.12707801 100.61328125 200.1328125 C99.3284082 200.13474609 99.3284082 200.13474609 98.01757812 200.13671875 C96.67856445 200.13091797 96.67856445 200.13091797 95.3125 200.125 C94.00249023 200.13080078 94.00249023 200.13080078 92.66601562 200.13671875 C90.9312066 200.13412755 89.19627055 200.10855449 87.4621582 200.05932617 C85.04167521 199.96840723 85.04167521 199.96840723 82.79370117 200.12231445 C80.75 200.12109375 80.75 200.12109375 77 199 C74.2944439 195.97803072 72.55319231 192.5201762 70.6875 188.9375 C69.46860608 186.72650649 68.24711513 184.5169433 67.0234375 182.30859375 C66.70331192 181.72189911 66.38318634 181.13520447 66.05335999 180.5307312 C62.53739975 174.09186297 58.78065369 167.80185357 55.01333618 161.50784302 C52.97709727 158.10317539 50.95242673 154.6916334 48.92578125 151.28125 C48.10243583 149.89710001 47.27903089 148.51298541 46.45556641 147.12890625 C42.85955389 141.08348755 39.26939566 135.03459359 35.67889404 128.98590088 C34.1125582 126.34733659 32.54589986 123.70896385 30.97924805 121.07058716 C27.68708834 115.52627852 24.39545377 109.98165871 21.10458374 104.43658447 C19.38038958 101.5313821 17.65602142 98.62628301 15.93164062 95.72119141 C15.11596157 94.34689385 14.30036615 92.97254665 13.48486328 91.59814453 C12.34819925 89.68248802 11.21123675 87.76700893 10.07421875 85.8515625 C9.43057373 84.76697754 8.78692871 83.68239258 8.1237793 82.56494141 C5.42632531 78.03703898 2.7116493 73.5194155 0 69 C-0.33 111.57 -0.66 154.14 -1 198 C-12.61350452 199.16135045 -24.3285724 199 -36 199 C-36 133.33 -36 67.66 -36 0 C-5 -1 -5 -1 0 0 Z " fill="#1D2C3A" transform="translate(2761,672)"/>
<path d="M0 0 C1.74144287 0.01885254 1.74144287 0.01885254 3.51806641 0.03808594 C29.57789805 0.35977173 55.71119122 1.15885763 76.125 19.5 C86.56526089 30.52374853 89.87583417 45.41363925 90.3125 60.1875 C90.24716237 61.79371679 90.13969158 63.39853578 90 65 C89.9071875 66.07507813 89.814375 67.15015625 89.71875 68.2578125 C88.35964832 80.14995218 85.05782168 90.96000603 77 100 C76.52304688 100.59167969 76.04609375 101.18335938 75.5546875 101.79296875 C67.31210651 111.17459988 53.85107703 115.39696671 42 118 C41.01 118 40.02 118 39 118 C46.10432624 128.53085015 54.0754748 138.10829287 62.66796875 147.453125 C64.62405252 149.58941749 66.54187697 151.74780657 68.4375 153.9375 C71.39883969 157.34689108 74.44171289 160.67776584 77.5 164 C81.73767886 168.60812025 85.9130017 173.25777151 90 178 C90.97263253 179.11851021 91.94529121 180.23699768 92.91796875 181.35546875 C93.98725513 182.59090704 95.05626353 183.82658597 96.125 185.0625 C96.62829834 185.6404834 97.13159668 186.2184668 97.65014648 186.81396484 C101.01767542 190.72324839 104.05344878 194.76365805 107 199 C103.95076236 202.04923764 100.3355649 201.45814076 96.23046875 201.58984375 C95.35731522 201.62106827 94.48416168 201.65229279 93.58454895 201.6844635 C91.73451614 201.74597059 89.88429168 201.80192368 88.03393555 201.8527832 C85.20792003 201.93689225 82.38509899 202.05859815 79.56054688 202.18164062 C77.76309072 202.23670578 75.96556372 202.28951361 74.16796875 202.33984375 C72.9036628 202.4019529 72.9036628 202.4019529 71.61381531 202.46531677 C67.2466436 202.5420067 65.58699229 202.4744238 62.07446289 199.63549805 C61.38989014 198.76578369 60.70531738 197.89606934 60 197 C58.83210938 195.75863281 58.83210938 195.75863281 57.640625 194.4921875 C53.48580013 189.94360471 49.42922838 185.35946465 45.5625 180.5625 C41.90428985 176.02683557 38.05257035 171.7429883 34.08618164 167.48071289 C30.30188887 163.38992478 26.79670759 159.11280891 23.3046875 154.76953125 C20.84322659 151.81160619 18.25500941 148.99404492 15.625 146.1875 C11.0459625 141.30066867 6.88135021 136.17692501 2.87939453 130.80737305 C-0.64783074 126.16006109 -4.31842812 121.89385729 -10 120 C-11.39439664 119.93334624 -12.79169875 119.91461801 -14.1875 119.9375 C-15.445625 119.958125 -16.70375 119.97875 -18 120 C-18.01030746 120.91153336 -18.02061493 121.82306671 -18.03123474 122.76222229 C-18.12937196 131.36904726 -18.2319089 139.9758063 -18.33933926 148.58252048 C-18.39441108 153.00689369 -18.44780509 157.43127367 -18.49731445 161.85571289 C-18.54519121 166.12866114 -18.5975409 170.40153369 -18.65294075 174.67439079 C-18.67325916 176.30137169 -18.69198887 177.92837325 -18.70907402 179.55539131 C-18.73335253 181.841121 -18.76337258 184.12671071 -18.79467773 186.41235352 C-18.81022202 187.71141129 -18.8257663 189.01046906 -18.84178162 190.34889221 C-19 194 -19 194 -20 201 C-31.22 201 -42.44 201 -54 201 C-54 135 -54 69 -54 1 C-12.83488398 -0.21073871 -12.83488398 -0.21073871 0 0 Z M-19 30 C-19 49.47 -19 68.94 -19 89 C-7.21728218 94.89135891 20.95844532 90.67205062 33 87 C40.91135109 84.10428312 47.54690388 80.34370237 52 73 C55.72439835 64.58661091 56.13866359 56.73386243 52.89453125 48.09765625 C49.41761564 39.94436507 43.68797441 36.60350299 35.875 33.02734375 C18.92399941 26.63861436 -1.42748389 28.53562366 -19 30 Z " fill="#1D2C3A" transform="translate(1460,670)"/>
<path d="M0 0 C0.71743881 -0.0049649 1.43487762 -0.00992981 2.17405701 -0.01504517 C4.56754506 -0.02973784 6.96096626 -0.03648993 9.35449219 -0.04199219 C11.02911377 -0.04774961 12.70373535 -0.05350727 14.37835693 -0.05926514 C17.90930487 -0.06980313 21.44022994 -0.07562358 24.97119141 -0.07910156 C28.55560716 -0.08344641 32.13977679 -0.09717289 35.72412109 -0.12011719 C102.5827612 -0.54000168 102.5827612 -0.54000168 122.95996094 18.84863281 C134.04288496 30.54398223 136.663293 47.94160907 136.40527344 63.50878906 C135.34210601 78.80204356 131.31446533 92.25357924 120.19042969 103.06738281 C110.57641097 111.21606782 98.08114198 114.79225953 86.15136719 118.16113281 C94.33646977 128.86214808 102.49352707 139.44693731 111.63574219 149.36035156 C114.13429518 152.14212562 116.49556361 154.99794418 118.83886719 157.91113281 C121.88000628 161.67915225 125.02350821 165.14756285 128.49511719 168.51660156 C131.566197 171.56595203 134.33094257 174.88168791 137.15136719 178.16113281 C138.21456821 179.38431177 139.2784297 180.6069168 140.34277344 181.82910156 C141.50821167 183.16888125 142.67357556 184.50872561 143.83886719 185.84863281 C144.39783691 186.49058594 144.95680664 187.13253906 145.53271484 187.79394531 C154.15136719 197.72643235 154.15136719 197.72643235 154.15136719 200.16113281 C148.21271216 200.57865264 142.27615302 200.91955785 136.32910156 201.19262695 C134.31069384 201.29577495 132.29320756 201.41914434 130.27734375 201.5637207 C112.61109737 202.80874549 112.61109737 202.80874549 107.67333984 198.86621094 C105.13184852 196.08655675 103.13660772 193.35394388 101.15136719 190.16113281 C99.87687432 188.5226287 98.58787708 186.89516034 97.27636719 185.28613281 C96.64085937 184.47660156 96.00535156 183.66707031 95.35058594 182.83300781 C91.74342661 178.45059754 87.84384722 174.34376703 83.97167969 170.19628906 C81.19717409 167.22308125 78.50926392 164.1835593 75.85058594 161.10644531 C73.85730291 158.82447991 71.81643691 156.58884707 69.77636719 154.34863281 C64.21103786 148.17960674 58.98850095 141.74337241 53.83105469 135.23144531 C45.97989461 125.41084168 40.01284839 119.30471301 27.15136719 117.16113281 C27.15136719 144.22113281 27.15136719 171.28113281 27.15136719 199.16113281 C22.7461049 199.89534319 18.85742611 200.3357089 14.44042969 200.47753906 C12.57451172 200.54038086 12.57451172 200.54038086 10.67089844 200.60449219 C9.38570312 200.64380859 8.10050781 200.683125 6.77636719 200.72363281 C5.46796875 200.76681641 4.15957031 200.81 2.81152344 200.85449219 C-0.40843078 200.96025711 -3.62845812 201.0623486 -6.84863281 201.16113281 C-6.97951434 177.29919164 -7.10992559 153.43724793 -7.23978424 129.57530117 C-7.30009707 118.49461688 -7.36056104 107.41393345 -7.42138672 96.33325195 C-7.47443113 86.67002194 -7.52718595 77.0067904 -7.57959986 67.34355694 C-7.60733617 62.23181325 -7.63521285 57.12007041 -7.66343689 52.00832939 C-7.69005713 47.1862265 -7.71628695 42.36412164 -7.74223137 37.54201508 C-7.75176402 35.78256466 -7.76143313 34.02311497 -7.7712574 32.26366615 C-7.79312413 28.34124863 -7.81338406 24.41884574 -7.82875061 20.49639702 C-7.8402606 17.56627853 -7.86181463 14.63644722 -7.88938904 11.70643806 C-7.89866876 10.3228933 -7.90783488 8.93934777 -7.91687012 7.55580139 C-7.92764336 6.34382112 -7.9384166 5.13184084 -7.9495163 3.88313389 C-7.75533603 -1.35616673 -4.56230946 0.02391968 0 0 Z M27.15136719 29.16113281 C27.15136719 48.96113281 27.15136719 68.76113281 27.15136719 89.16113281 C35.56636719 89.25394531 35.56636719 89.25394531 44.15136719 89.34863281 C46.75205078 89.38960083 46.75205078 89.38960083 49.40527344 89.43139648 C64.69492842 89.56999439 82.90382552 88.77883083 94.68261719 77.80566406 C100.74618078 71.01640801 101.45475859 64.20874629 101.36621094 55.42285156 C100.95904767 49.24137281 98.96183531 44.20792104 94.72167969 39.53613281 C91.54941849 36.75843146 87.95658238 34.92806524 84.15136719 33.16113281 C83.508125 32.86207031 82.86488281 32.56300781 82.20214844 32.25488281 C65.59088473 25.72786367 44.40883892 27.72301017 27.15136719 29.16113281 Z " fill="#1D2C3A" transform="translate(753.8486328125,670.8388671875)"/>
<path d="M0 0 C19.13187574 -0.02333511 38.2637486 -0.04098219 57.3956356 -0.05181217 C66.27841034 -0.05697382 75.16117624 -0.06401404 84.04394531 -0.07543945 C91.78395647 -0.08539027 99.52396123 -0.09185438 107.2639786 -0.09408849 C111.36424019 -0.09539492 115.46448349 -0.09847651 119.56473923 -0.10573006 C123.42075714 -0.11249653 127.27674916 -0.11461567 131.13277245 -0.11310768 C132.55098422 -0.11338373 133.96919683 -0.11538514 135.38740349 -0.11920547 C137.31786352 -0.12415242 139.24833731 -0.12239527 141.17880249 -0.12025452 C142.26098745 -0.12117631 143.34317242 -0.1220981 144.45815086 -0.12304783 C147 0 147 0 149 1 C149 9.91 149 18.82 149 28 C146.14235896 28.95254701 144.38781871 29.12360206 141.42524719 29.12025452 C140.4871521 29.12162918 139.54905701 29.12300385 138.58253479 29.12442017 C137.55538864 29.12082489 136.52824249 29.11722961 135.4699707 29.11352539 C133.84534409 29.11374443 133.84534409 29.11374443 132.18789673 29.1139679 C128.60050467 29.11327007 125.01316426 29.10548372 121.42578125 29.09765625 C118.9414218 29.09579161 116.45706198 29.09436792 113.97270203 29.09336853 C108.09728397 29.0899378 102.22188504 29.0820527 96.34647483 29.07201904 C89.00116851 29.05974734 81.6558611 29.05437462 74.31054688 29.04882812 C61.2070218 29.03809721 48.10351208 29.02121684 35 29 C35.00261841 29.71888397 35.00523682 30.43776794 35.00793457 31.17843628 C35.09040787 57.24234689 35.09040787 57.24234689 34.5 68.125 C34.45230469 69.1046875 34.40460937 70.084375 34.35546875 71.09375 C34.24260434 73.39618406 34.12438772 75.6981656 34 78 C34.6428746 77.99777939 35.28574921 77.99555878 35.94810486 77.99327087 C44.27788969 77.96590528 52.60767721 77.94805548 60.9375 77.9375 C61.60819016 77.93664398 62.27888031 77.93578796 62.96989441 77.93490601 C89.65692606 77.90486319 116.32110809 78.32213342 143 79 C143 87.91 143 96.82 143 106 C133.05290015 106.13234641 123.10578217 106.26306289 113.15862656 106.39115143 C108.53640193 106.45073145 103.91418753 106.51094041 99.29199219 106.57275391 C77.86004653 106.85888824 56.43420017 107.0891463 35 107 C35.01160156 108.08925781 35.02320312 109.17851563 35.03515625 110.30078125 C35.14752665 130.89666939 34.47965104 151.3750054 34 172 C71.95 172 109.9 172 149 172 C149 181.24 149 190.48 149 200 C99.5 200 50 200 -1 200 C-1.04030303 157.70420465 -1.04030303 157.70420465 -1.04882812 139.82226562 C-1.05473507 127.5316526 -1.06163475 115.24104649 -1.07543945 102.95043945 C-1.0854936 93.99465644 -1.0918786 85.0388791 -1.09408849 76.0830906 C-1.09537763 71.35325531 -1.09834674 66.62343622 -1.10573006 61.89360619 C-1.13676761 41.23656369 -1.01434736 20.63742557 0 0 Z " fill="#1D2C3A" transform="translate(2492,671)"/>
<path d="M0 0 C1.0904811 0.00092179 2.1809622 0.00184359 3.30448818 0.00279331 C4.55115765 0.00141865 5.79782711 0.00004398 7.08227444 -0.00137234 C8.47653127 0.00216727 9.87078785 0.00580209 11.26504421 0.00952244 C12.72330123 0.0098043 14.18155839 0.00964659 15.63981533 0.00907993 C19.61071618 0.00879193 23.58158708 0.01468906 27.55248094 0.02165389 C31.69783233 0.02788702 35.84318434 0.02849119 39.9885397 0.0296793 C47.84377459 0.03279274 55.69899564 0.04100629 63.55422443 0.05102879 C72.49482531 0.06218954 81.43542684 0.06770028 90.37603295 0.07272422 C108.77255853 0.0831889 127.16906512 0.10153453 145.56558132 0.12304783 C145.56558132 9.36304783 145.56558132 18.60304783 145.56558132 28.12304783 C107.94558132 28.12304783 70.32558132 28.12304783 31.56558132 28.12304783 C31.56558132 43.96304783 31.56558132 59.80304783 31.56558132 76.12304783 C67.56530369 76.80596939 103.56525228 77.47302268 139.56558132 78.12304783 C139.56558132 87.03304783 139.56558132 95.94304783 139.56558132 105.12304783 C130.50441974 105.2560609 121.44323257 105.38685711 112.38198948 105.51419926 C108.17021804 105.57346859 103.95846217 105.63355068 99.74673367 105.69580173 C77.01651462 106.03101023 54.29876829 106.17185768 31.56558132 106.12304783 C31.56558132 127.57304783 31.56558132 149.02304783 31.56558132 171.12304783 C69.18558132 171.12304783 106.80558132 171.12304783 145.56558132 171.12304783 C147.82924716 180.17771116 145.95413307 189.79780581 145.56558132 199.12304783 C96.39558132 199.12304783 47.22558132 199.12304783 -3.43441868 199.12304783 C-3.47472171 149.51001271 -3.47472171 149.51001271 -3.4832468 128.78906345 C-3.48919049 114.45710996 -3.4961941 100.12516233 -3.50985813 85.79321384 C-3.51980292 75.357363 -3.52627162 64.9215169 -3.52850717 54.48566145 C-3.52981463 48.95629188 -3.53290268 43.42693585 -3.54014874 37.89757061 C-3.54690572 32.6995891 -3.5490363 27.5016268 -3.54752636 22.30364132 C-3.54780283 20.38995478 -3.54980985 18.47626764 -3.55362415 16.56258488 C-3.55855639 13.96174852 -3.55741872 11.3609859 -3.55467319 8.76014805 C-3.55758604 7.99265313 -3.56049888 7.22515821 -3.56349999 6.43440586 C-3.54549458 0.17920722 -3.54549458 0.17920722 0 0 Z " fill="#1D2C3A" transform="translate(973.4344186782837,671.8769521713257)"/>
<path d="M0 0 C0.00238835 0.58878276 0.00477671 1.17756552 0.00723743 1.78419018 C0.0667689 16.21217389 0.14255579 30.64000754 0.23571491 45.06781292 C0.28039007 52.04543724 0.31986689 59.02301371 0.34643555 66.00073242 C0.37215222 72.75064252 0.41324169 79.50032741 0.46318626 86.25010109 C0.47970777 88.80888976 0.49131264 91.36771566 0.49761391 93.92654991 C0.03206778 130.6825284 0.03206778 130.6825284 15.66015625 162.84765625 C23.39226861 170.01615222 31.73122463 170.68958386 41.859375 170.34375 C49.65648177 169.84981563 56.07909612 167.14190243 61.34375 161.28125 C77.51498932 139.00765622 76.31866916 108.83437667 76.1953125 82.640625 C76.19157146 80.27024456 76.18872966 77.89986254 76.18673706 75.52947998 C76.17918637 69.36146599 76.15961392 63.19354973 76.1373291 57.02557373 C76.11668365 50.70326051 76.1076958 44.38093113 76.09765625 38.05859375 C76.07635792 25.70567983 76.04124813 13.35286342 76 1 C86.89 0.67 97.78 0.34 109 0 C110.5198233 5.31938156 111.39078218 9.62609576 111.61328125 15.01953125 C111.65060867 15.82542191 111.6879361 16.63131256 111.72639465 17.46162415 C112.26004321 30.52798983 112.19734708 43.61250261 112.1875 56.6875 C112.18732061 57.74094416 112.18732061 57.74094416 112.1871376 58.81567001 C112.18325959 76.82582834 112.07341004 94.82006206 111.1875 112.8125 C111.15256439 113.57638031 111.11762878 114.34026062 111.08163452 115.12728882 C110.68151494 123.51762289 109.85306305 131.77103162 108.5703125 140.07421875 C108.39190071 141.23374809 108.39190071 141.23374809 108.20988464 142.41670227 C105.2709988 160.31030513 97.86702453 176.6683635 83.3671875 188.0703125 C64.85031191 200.54086137 41.71987276 203.22989148 20.06542969 199.42285156 C10.48902704 197.46229253 1.67597506 194.16136695 -6 188 C-6.73476562 187.44957031 -7.46953125 186.89914062 -8.2265625 186.33203125 C-26.65771875 171.47943283 -32.78786508 145.39744689 -35.60546875 122.98828125 C-36.6197938 113.28979503 -37.15157935 103.64469993 -37.1328125 93.89453125 C-37.13417709 92.78333923 -37.13554169 91.67214722 -37.13694763 90.52728271 C-37.13895423 86.95565704 -37.13269584 83.38411705 -37.125 79.8125 C-37.12378143 78.59223114 -37.12256287 77.37196228 -37.12130737 76.11471558 C-37.09190631 51.03643249 -36.66659949 26.02762111 -35 1 C-30.66676008 0.83084529 -26.33339523 0.66512423 -22 0.5 C-20.77925781 0.45230469 -19.55851562 0.40460937 -18.30078125 0.35546875 C-17.10839844 0.31035156 -15.91601562 0.26523437 -14.6875 0.21875 C-13.59824219 0.17685547 -12.50898437 0.13496094 -11.38671875 0.09179688 C-7.58842653 -0.01115568 -3.79964482 -0.00575444 0 0 Z " fill="#1D2C3A" transform="translate(1669,671)"/>
<path d="M0 0 C2.68310015 -0.00409045 5.36617262 -0.0115973 8.049263 -0.01981354 C44.27407921 -0.1169895 44.27407921 -0.1169895 62.14490509 2.2458725 C61.83408862 3.69053229 61.5204826 5.1345921 61.20569611 6.57839203 C61.03135544 7.38261597 60.85701477 8.1868399 60.67739105 9.01543427 C58.48202226 18.21123441 52.2934528 25.35178955 46.14490509 32.2458725 C45.35237335 33.13895111 45.35237335 33.13895111 44.54383087 34.05007172 C28.48208236 52.0225115 12.21051581 65.93042372 -12.98057556 67.36709023 C-15.26782272 67.44613662 -17.55419879 67.49960737 -19.8423996 67.54299164 C-20.70712261 67.56263348 -21.57184563 67.58227531 -22.46277237 67.60251236 C-25.31743166 67.66616392 -28.17217627 67.72374483 -31.02696991 67.78102875 C-33.0498023 67.82437938 -35.07262936 67.86797885 -37.09545135 67.91181183 C-43.59853421 68.05079732 -50.10179691 68.17992029 -56.60509491 68.3083725 C-58.82982696 68.35297929 -61.05455841 68.39761636 -63.27928925 68.44228363 C-157.983175 70.33142324 -157.983175 70.33142324 -188.85509491 67.2458725 C-190.40023389 61.76661052 -188.48499351 58.16951724 -185.85509491 53.2458725 C-169.26692218 28.81708196 -141.49307055 9.47018363 -112.29236603 3.74326324 C-105.175398 2.49253278 -98.22077077 1.84652611 -91.00353241 1.61306 C-89.86670517 1.57131653 -88.72987793 1.52957306 -87.55860138 1.48656464 C-83.78271221 1.35350132 -80.00658553 1.23553795 -76.23009491 1.1208725 C-74.26086563 1.05833282 -74.26086563 1.05833282 -72.25185394 0.99452972 C-48.17154537 0.24033677 -24.09110712 0.02878784 0 0 Z " fill="#B9524B" transform="translate(607.855094909668,219.7541275024414)"/>
<path d="M0 0 C1.10085938 0.24492188 2.20171875 0.48984375 3.3359375 0.7421875 C12.89030332 3.1683523 21.43427804 7.20516484 30 12 C30.72203613 12.35223633 31.44407227 12.70447266 32.18798828 13.06738281 C35.10155074 16.17486873 34.48994526 19.79469902 34.390625 23.82421875 C34.38496521 24.68561966 34.37930542 25.54702057 34.37347412 26.43452454 C34.3510813 29.18608148 34.3008808 31.93633663 34.25 34.6875 C34.2299387 36.55271557 34.21168728 38.41795155 34.1953125 40.28320312 C34.15120713 44.85597042 34.08216057 49.4277645 34 54 C28.54122756 53.30966016 26.87737188 52.28669454 23.4375 47.9375 C13.49781853 36.46520297 -1.38378825 28.99702585 -16.5703125 27.796875 C-31.28404282 27.5268983 -44.14517489 32.57168098 -54.87109375 42.68359375 C-65.67870326 54.44306612 -70.29437596 68.54199411 -73 84 C-73.13277344 84.75410156 -73.26554687 85.50820313 -73.40234375 86.28515625 C-76.47446713 108.126691 -73.38675394 133.16437137 -60.8046875 151.60546875 C-52.125456 163.12141878 -39.04636496 170.79908491 -24.90234375 173.6171875 C-6.72566613 176.01464969 7.86124325 168.28998624 22.21777344 157.95898438 C33.363748 150 33.363748 150 39 150 C39.33274894 155.46658976 39.61987392 160.93268098 39.86669922 166.40380859 C39.99030836 168.8112438 40.16374463 171.20985506 40.34765625 173.61328125 C40.95593452 183.46357351 40.95593452 183.46357351 38.70703125 187.078125 C36.57824188 188.80294368 34.48807319 189.84995728 32 191 C31.01644531 191.5671875 30.03289062 192.134375 29.01953125 192.71875 C6.74263115 205.04547549 -21.51525086 207.61544464 -46 201 C-67.28597676 194.63771656 -85.29635248 181.98871163 -96.20288086 162.36010742 C-113.09647327 130.92381087 -114.04389349 92.54913914 -104.3125 58.6875 C-100.45838161 46.09900871 -94.60913307 35.01430192 -86 25 C-85.47019531 24.32710937 -84.94039062 23.65421875 -84.39453125 22.9609375 C-73.04660278 8.99840318 -57.10565344 2.55607934 -40 -1 C-39.06027344 -1.1959375 -38.12054687 -1.391875 -37.15234375 -1.59375 C-25.04159131 -3.15449133 -11.88920578 -2.67276719 0 0 Z " fill="#1D2C3A" transform="translate(1297,668)"/>
<path d="M0 0 C0.90477081 -0.00095673 1.80954163 -0.00191345 2.74172974 -0.00289917 C4.64959788 -0.0035775 6.55746837 -0.00174745 8.46533203 0.00244141 C11.36626446 0.00778203 14.26704118 0.00249105 17.16796875 -0.00390625 C19.02864617 -0.00324516 20.8893235 -0.00196337 22.75 0 C23.60858612 -0.00202423 24.46717224 -0.00404846 25.35177612 -0.00613403 C39.42289736 0.04789736 39.42289736 0.04789736 41.5078125 2.1328125 C42.89510409 19.05776984 32.19202739 33.46569998 22.58984375 46.4921875 C18.59098256 51.93920568 14.98445659 57.56709068 11.4453125 63.3203125 C10.13035123 65.44149484 8.81524294 67.56258605 7.5 69.68359375 C6.83709961 70.75561035 6.17419922 71.82762695 5.49121094 72.93212891 C2.98077334 76.98331513 0.4500585 81.02158901 -2.08154297 85.05957031 C-7.2360009 93.28219038 -12.35497155 101.52502027 -17.42529297 109.79980469 C-56.06163445 172.84151364 -56.06163445 172.84151364 -70.4921875 186.1328125 C-78.89818943 182.81263366 -84.97132204 171.67877435 -89.8671875 164.3828125 C-90.27146973 163.78186768 -90.67575195 163.18092285 -91.09228516 162.56176758 C-96.67556439 154.05208793 -102.19957585 144.63141335 -100.4921875 134.1328125 C-99.40551758 131.71142578 -99.40551758 131.71142578 -97.94921875 129.140625 C-97.40281738 128.17455322 -96.85641602 127.20848145 -96.29345703 126.21313477 C-93.14935794 120.8364611 -89.93155668 115.50729359 -86.6796875 110.1953125 C-85.93202032 108.96956651 -85.18463072 107.74365117 -84.4375 106.51757812 C-82.89087577 103.97998015 -81.34308121 101.44310189 -79.79443359 98.90673828 C-76.53460654 93.56576225 -73.28941935 88.21590942 -70.04388428 82.86624146 C-68.275877 79.95217433 -66.50711893 77.03856312 -64.73828125 74.125 C-64.38739441 73.5470015 -64.03650757 72.96900299 -63.67498779 72.37348938 C-61.5617236 68.89288145 -59.44681481 65.41327898 -57.33055115 61.93449402 C-55.92271818 59.62015557 -54.51540213 57.30550311 -53.10824585 54.99075317 C-52.40903426 53.84065816 -51.70967444 52.69065324 -51.01016235 51.54074097 C-46.83191107 44.67061774 -42.68043089 37.7853727 -38.5625 30.87890625 C-38.15303635 30.19300415 -37.74357269 29.50710205 -37.32170105 28.80041504 C-35.33630143 25.47459547 -33.35437205 22.14681603 -31.37915039 18.81494141 C-30.66048369 17.60960232 -29.94166033 16.40435662 -29.22265625 15.19921875 C-28.59770264 14.14677979 -27.97274902 13.09434082 -27.32885742 12.01000977 C-23.97640827 6.75829991 -21.36675354 3.48263892 -15.4921875 1.1328125 C-10.31664694 -0.00058135 -5.26904079 -0.01236416 0 0 Z " fill="#1D2C3A" transform="translate(1479.4921875,0.8671875)"/>
<path d="M0 0 C9.71890148 7.9387575 16.11299481 18.02452259 22.9375 28.4375 C23.50549316 29.30197754 24.07348633 30.16645508 24.65869141 31.05712891 C25.19284668 31.8826123 25.72700195 32.7080957 26.27734375 33.55859375 C26.75421631 34.29392334 27.23108887 35.02925293 27.72241211 35.78686523 C30.56355219 40.70850385 32.15382364 45.3252549 31 51 C27.05597551 60.39583414 21.70337889 68.93156998 16.03869629 77.36221313 C14.34360603 79.8854845 12.66676902 82.42071165 10.98867798 84.95530701 C10.15014194 86.22162074 9.31077679 87.48738587 8.47055054 88.75257874 C5.16559 93.73216263 1.92951351 98.75176509 -1.25 103.8125 C-1.71486816 104.55153564 -2.17973633 105.29057129 -2.65869141 106.05200195 C-5.25062258 110.18398191 -7.82409522 114.32727931 -10.39453125 118.47265625 C-17.45009736 129.83620193 -24.61948062 141.11663731 -31.9375 152.3125 C-32.33228546 152.91833923 -32.72707092 153.52417847 -33.13381958 154.14837646 C-50.88042989 181.35728243 -50.88042989 181.35728243 -62 184 C-64.99622351 184.38039012 -67.98350102 184.55566486 -71 184.6875 C-71.83088135 184.72584961 -72.6617627 184.76419922 -73.51782227 184.80371094 C-85.3891392 185.26314307 -96.5494201 184.39039517 -108 181 C-109.6115664 162.80720596 -97.08282436 146.9142308 -86.9140625 132.76953125 C-82.61112205 126.54343987 -78.68787085 120.05884292 -74.66650391 113.64892578 C-71.83661744 109.15079097 -68.98062023 104.66932584 -66.125 100.1875 C-64.94138232 98.32944233 -63.75778873 96.47136931 -62.57421875 94.61328125 C-61.98431152 93.68725098 -61.3944043 92.7612207 -60.78662109 91.80712891 C-59.00777051 89.01220898 -57.23194875 86.21538775 -55.45703125 83.41796875 C-48.22113796 72.01850579 -40.91065562 60.6710484 -33.53613281 49.36083984 C-31.54620229 46.3025709 -29.56719246 43.2373283 -27.58911133 40.17138672 C-25.39827565 36.77732775 -23.20011406 33.38804947 -21 30 C-20.33871094 28.98035156 -19.67742187 27.96070313 -18.99609375 26.91015625 C-12.96313663 17.72847412 -6.47306097 8.87378414 0 0 Z " fill="#1D2C3A" transform="translate(1251,327)"/>
<path d="M0 0 C51.81 0 103.62 0 157 0 C157 8.91 157 17.82 157 27 C151.84868625 27.14525356 146.69738271 27.28850146 141.54589844 27.42724609 C139.80465797 27.47467659 138.06344496 27.52312963 136.32226562 27.57275391 C122.87134822 27.95505956 109.46414604 28 96 28 C96 84.43 96 140.86 96 199 C84.78 199 73.56 199 62 199 C62 142.57 62 86.14 62 28 C41.87 28 21.74 28 1 28 C0.67 27.67 0.34 27.34 0 27 C0 18.09 0 9.18 0 0 Z " fill="#1D2C3A" transform="translate(1974,672)"/>
<path d="M0 0 C1.73527529 0.00138269 1.73527529 0.00138269 3.50560665 0.00279331 C4.1475788 0.00193889 4.78955094 0.00108446 5.45097679 0.00020415 C7.61756553 -0.00145239 9.78407806 0.0040735 11.95065975 0.00952244 C13.4975856 0.0098043 15.04451157 0.0096466 16.59143734 0.00907993 C20.80406531 0.00879191 25.01666505 0.01468934 29.22928643 0.02165389 C33.62688286 0.02788671 38.02447987 0.02849117 42.42208004 0.0296793 C50.75543011 0.03279283 59.08876714 0.04100651 67.42211145 0.05102879 C76.90683753 0.06218926 86.39156421 0.06770021 95.87629521 0.07272422 C115.39254588 0.0831891 134.90878439 0.10078896 154.42502499 0.12304783 C154.45224329 3.12311023 154.47196877 6.12292039 154.48752499 9.12304783 C154.49590389 9.96222752 154.5042828 10.8014072 154.51291561 11.66601658 C154.53326532 16.91624122 154.18870706 21.92760445 153.42502499 27.12304783 C146.98789765 27.2676423 140.55071908 27.40977254 134.11350155 27.55029392 C131.92957013 27.59824644 129.74565043 27.64673628 127.56174374 27.69580173 C124.39901365 27.76676042 121.23624461 27.83570205 118.07346249 27.90429783 C117.11765285 27.92617161 116.16184322 27.94804539 115.17706966 27.97058201 C107.58755846 28.13224264 100.02173817 28.12304783 92.42502499 28.12304783 C92.42502499 84.55304783 92.42502499 140.98304783 92.42502499 199.12304783 C81.53502499 199.12304783 70.64502499 199.12304783 59.42502499 199.12304783 C58.45609745 195.24733769 58.3018039 192.23929969 58.30477047 188.26410007 C58.30391604 187.57464558 58.30306162 186.88519108 58.3021813 186.17484403 C58.30053472 183.86555997 58.30603442 181.55634862 58.3114996 179.24707127 C58.31178167 177.59132991 58.31162334 175.93558843 58.31105709 174.27984715 C58.31076991 169.78434868 58.31665389 165.28887683 58.32363105 160.79338455 C58.32987773 156.09551408 58.33046943 151.39764301 58.33165646 146.69976902 C58.33476589 137.80340535 58.34297406 128.90705396 58.35300595 120.0106957 C58.36417911 109.88262318 58.36968057 99.75455009 58.37470138 89.62647295 C58.38515698 68.79199106 58.40274894 47.95752022 58.42502499 27.12304783 C57.87982204 27.1355759 57.3346191 27.14810398 56.77289486 27.1610117 C51.028888 27.29268546 45.2848333 27.42210498 39.54074764 27.55029392 C37.40531828 27.5982341 35.26990115 27.64672336 33.13449764 27.69580173 C3.51243657 28.37565232 3.51243657 28.37565232 -1.57497501 28.12304783 C-4.25675652 25.44126632 -3.07037706 17.75179043 -3.19997501 14.12304783 C-3.25153751 12.89586033 -3.30310001 11.66867283 -3.35622501 10.40429783 C-3.40005314 9.23898533 -3.44388126 8.07367283 -3.48903751 6.87304783 C-3.55018742 5.25656345 -3.55018742 5.25656345 -3.61257267 3.60742283 C-3.56092941 0.19494349 -3.40971136 0.16293656 0 0 Z " fill="#1D2C3A" transform="translate(2948.574975013733,671.8769521713257)"/>
<path d="M0 0 C10.57176949 0.02461413 20.94070517 0.60269932 31.54296875 1.1328125 C31.54296875 66.8028125 31.54296875 132.4728125 31.54296875 200.1328125 C15.20796875 200.6278125 15.20796875 200.6278125 -1.45703125 201.1328125 C-3.28745459 199.30238916 -2.60181808 196.38963687 -2.61524963 193.93261719 C-2.62018761 193.27717674 -2.62512559 192.6217363 -2.6302132 191.94643402 C-2.64566563 189.7325212 -2.65397097 187.51863758 -2.66235352 185.3046875 C-2.67192901 183.72263328 -2.68193889 182.14058164 -2.69235229 180.55853271 C-2.71951792 176.23834873 -2.74048325 171.91815379 -2.76035428 167.59793091 C-2.7822615 163.05159559 -2.80965359 158.50529326 -2.83641052 153.95898438 C-2.8807836 146.28842655 -2.92151071 138.61785654 -2.9597168 130.94726562 C-3.01301 120.24921039 -3.07288938 109.55119992 -3.13411248 98.85318756 C-3.18194431 90.44640358 -3.22774289 82.03960832 -3.2734375 73.6328125 C-3.27825425 72.75280075 -3.28307101 71.872789 -3.28803372 70.96611023 C-3.34649108 60.25575403 -3.39875151 49.545403 -3.43870926 38.83496094 C-3.45071701 35.63638115 -3.46494852 32.43782119 -3.48072433 29.23925781 C-3.49983818 25.30604201 -3.5138737 21.37283914 -3.52407825 17.43959045 C-3.52866139 15.97550319 -3.53495142 14.51142018 -3.54302895 13.04734802 C-3.5537203 11.05176715 -3.55762807 9.0561533 -3.56114197 7.06054688 C-3.56521026 5.93467163 -3.56927855 4.80879639 -3.57347012 3.64880371 C-3.41827465 0.29536655 -3.34638036 0.18088542 0 0 Z " fill="#1D2C3A" transform="translate(1871.45703125,670.8671875)"/>
</svg>
